<?xml version="1.0" encoding="UTF-8"?>
<svg id="Layer_1" xmlns="http://www.w3.org/2000/svg" viewBox="0 0 173.91 190.25">
  <defs>
    <style>
      .cls-1 {
        fill: #231f20;
      }
    </style>
  </defs>
  <path class="cls-1" d="M73.51,49.8c-1.48-2.18-3.26-3.91-5.37-5.11-1.14-.66-1.7-1.14-1.7-1.44,0,.13.81-.7,2.42-2.49,1.83-2.05,3.32-4.11,4.46-6.16,1.57-2.88,2.36-5.61,2.36-8.19,0-9.87-3.39-16.88-10.16-21.03C60.41,2.27,52.48.53,41.74.13c-2.36-.09-10.51-.13-24.44-.13C8.6,0,3.55.09,2.13.26.71.44.02.94.06,1.77l.06.92c.35,7.16.59,12.54.72,16.12.53,13.98.79,23.5.79,28.57,0,4.72-.27,11.82-.82,21.3-.55,9.48-.82,16.56-.82,21.23,0,1.09.63,1.77,1.9,2.03,3.06.66,12.65.98,28.77.98h4.65c2.05.04,3.63.07,4.72.07,2.55,0,4.92-.13,7.2-.32.35-12.5,4.34-23.19,12.05-32.02,4.18-4.8,8.92-8.41,14.22-10.83ZM26.24,23.36c.15-1.68.23-2.94.23-3.77,0-.7,2.36-1.05,7.08-1.05s8.26.33,10.35.98c3.76,1.22,5.64,3.71,5.64,7.47,0,5.37-4.7,8.06-14.09,8.06-5.07,0-7.84-.2-8.32-.59-.74-.52-1.11-2.97-1.11-7.34,0-.83.08-2.09.23-3.77ZM46.72,71.22c-1.92.74-5.24,1.11-9.96,1.11-5.72,0-8.87-.27-9.44-.82-.57-.55-.85-3.4-.85-8.55s.24-7.61.72-8.03c.48-.41,3.54-.62,9.17-.62,4.72,0,8.12.44,10.22,1.31,3.28,1.4,4.91,4.06,4.91,7.99s-1.59,6.33-4.78,7.6Z"/>
  <path class="cls-1" d="M101.23,116.77c-2.48.82-5.06,1.26-7.74,1.26-6.42,0-11.55-2.45-15.4-7.34-3.54-4.5-5.31-10.07-5.31-16.71s1.77-12.06,5.31-16.51c3.84-4.8,8.98-7.21,15.4-7.21,3.71,0,7.29.88,10.74,2.62,2.27,1.18,4.59,2.82,6.95,4.91,1.97,1.75,3.06,2.62,3.28,2.62.53,0,.96-.18,1.31-.53.79-.65,2.7-3.65,5.73-8.98,3.04-5.33,4.55-8.41,4.55-9.24,0-.74-.44-1.59-1.31-2.56-8.04-8.69-19.13-13.04-33.28-13.04-6.57,0-12.55,1.24-17.95,3.71.67.98,1.3,2.03,1.84,3.21,1.57,3.41,2.36,7.03,2.36,10.88,0,8.04-2.51,14.7-7.54,19.98-4.7,4.99-12.38,7.9-22.94,8.79-.02.6-.07,1.18-.07,1.79,0,13.72,4.13,25.07,12.38,34.07,8.47,9.3,19.52,13.95,33.15,13.95.77,0,1.5-.07,2.26-.1,0-.05,0-.09,0-.14,0-9.53,2.12-18,6.28-25.46Z"/>
  <path class="cls-1" d="M122.98,130c.59-.62,1.2-1.21,1.76-1.89.92-1.14,1.38-2.05,1.38-2.75,0-.06-.03-.16-.08-.29-.05.06-.11.12-.16.18-1.16,1.47-2.12,3.06-2.9,4.75Z"/>
  <path class="cls-1" d="M111.12,110.95c1.92-1.66,2.99-2.49,3.21-2.49.43,0,.87.24,1.31.72.7.79,2.6,3.52,5.7,8.19,2.78,4.23,4.35,6.8,4.71,7.7,3.83-4.68,8.9-7.03,15.24-7.03,3.71,0,7.29.88,10.74,2.62,2.27,1.18,4.59,2.82,6.95,4.92,1.97,1.75,3.06,2.62,3.28,2.62.53,0,.96-.18,1.31-.53.79-.65,2.7-3.64,5.73-8.97,3.04-5.33,4.55-8.41,4.55-9.24,0-.74-.44-1.59-1.31-2.56-8.04-8.69-19.13-13.04-33.28-13.04-13.02,0-23.74,4.85-32.17,14.54-2.28,2.62-4.21,5.41-5.85,8.35,1.04-.35,2.07-.74,3.07-1.23,2.23-1.09,4.5-2.62,6.81-4.59Z"/>
  <path class="cls-1" d="M169.12,165.16c-3.1-4.67-5-7.4-5.7-8.19-.44-.48-.88-.72-1.31-.72-.22,0-1.29.83-3.21,2.49-2.32,1.97-4.59,3.5-6.81,4.59-3.41,1.66-7.01,2.49-10.81,2.49-6.42,0-11.55-2.45-15.4-7.34-3.54-4.5-5.31-10.07-5.31-16.71,0-4.4.82-8.31,2.41-11.77-7.33,7.76-16.67,11.88-28.02,12.36.03,13.66,4.15,24.97,12.38,33.94,8.47,9.3,19.52,13.95,33.15,13.95s24-4.78,32.04-14.35c.92-1.14,1.38-2.05,1.38-2.75,0-.48-1.59-3.15-4.78-7.99Z"/>
</svg>